<?xml version="1.0" encoding="utf-8" standalone="no"?>
<!DOCTYPE svg PUBLIC "-//W3C//DTD SVG 1.1//EN"
  "http://www.w3.org/Graphics/SVG/1.1/DTD/svg11.dtd">
<svg height="345.6pt" version="1.1" viewBox="0 0 460.8 345.6" width="460.8pt" xmlns="http://www.w3.org/2000/svg" xmlns:xlink="http://www.w3.org/1999/xlink">
 <metadata>
  <rdf:RDF xmlns:cc="http://creativecommons.org/ns#" xmlns:dc="http://purl.org/dc/elements/1.1/" xmlns:rdf="http://www.w3.org/1999/02/22-rdf-syntax-ns#">
   <cc:Work>
    <dc:type rdf:resource="http://purl.org/dc/dcmitype/StillImage"/>
    <dc:date>2023-06-12T19:52:19.971664</dc:date>
    <dc:format>image/svg+xml</dc:format>
    <dc:creator>
     <cc:Agent>
      <dc:title>Matplotlib v3.4.3, https://matplotlib.org/</dc:title>
     </cc:Agent>
    </dc:creator>
   </cc:Work>
  </rdf:RDF>
 </metadata>
 <defs>
  <style type="text/css">*{stroke-linecap:butt;stroke-linejoin:round;}</style>
 </defs>
 <g id="figure_1">
  <g id="patch_1">
   <path d="M 0 345.6 
L 460.8 345.6 
L 460.8 0 
L 0 0 
z
" style="fill:#ffffff;"/>
  </g>
  <g id="axes_1">
   <g id="patch_2">
    <path d="M 57.6 307.584 
L 414.72 307.584 
L 414.72 41.472 
L 57.6 41.472 
z
" style="fill:#ffffff;"/>
   </g>
   <g id="patch_3">
    <path clip-path="url(#peca006d378)" d="M 73.832727 307.584 
L 77.079273 307.584 
L 77.079273 294.2784 
L 73.832727 294.2784 
z
" style="fill:#4090d3;stroke:#000000;stroke-linejoin:miter;"/>
   </g>
   <g id="patch_4">
    <path clip-path="url(#peca006d378)" d="M 77.079273 307.584 
L 80.325818 307.584 
L 80.325818 307.584 
L 77.079273 307.584 
z
" style="fill:#4090d3;stroke:#000000;stroke-linejoin:miter;"/>
   </g>
   <g id="patch_5">
    <path clip-path="url(#peca006d378)" d="M 80.325818 307.584 
L 83.572364 307.584 
L 83.572364 280.9728 
L 80.325818 280.9728 
z
" style="fill:#4090d3;stroke:#000000;stroke-linejoin:miter;"/>
   </g>
   <g id="patch_6">
    <path clip-path="url(#peca006d378)" d="M 83.572364 307.584 
L 86.818909 307.584 
L 86.818909 280.9728 
L 83.572364 280.9728 
z
" style="fill:#4090d3;stroke:#000000;stroke-linejoin:miter;"/>
   </g>
   <g id="patch_7">
    <path clip-path="url(#peca006d378)" d="M 86.818909 307.584 
L 90.065455 307.584 
L 90.065455 307.584 
L 86.818909 307.584 
z
" style="fill:#4090d3;stroke:#000000;stroke-linejoin:miter;"/>
   </g>
   <g id="patch_8">
    <path clip-path="url(#peca006d378)" d="M 90.065455 307.584 
L 93.312 307.584 
L 93.312 307.584 
L 90.065455 307.584 
z
" style="fill:#4090d3;stroke:#000000;stroke-linejoin:miter;"/>
   </g>
   <g id="patch_9">
    <path clip-path="url(#peca006d378)" d="M 93.312 307.584 
L 96.558545 307.584 
L 96.558545 307.584 
L 93.312 307.584 
z
" style="fill:#4090d3;stroke:#000000;stroke-linejoin:miter;"/>
   </g>
   <g id="patch_10">
    <path clip-path="url(#peca006d378)" d="M 96.558545 307.584 
L 99.805091 307.584 
L 99.805091 307.584 
L 96.558545 307.584 
z
" style="fill:#4090d3;stroke:#000000;stroke-linejoin:miter;"/>
   </g>
   <g id="patch_11">
    <path clip-path="url(#peca006d378)" d="M 99.805091 307.584 
L 103.051636 307.584 
L 103.051636 280.9728 
L 99.805091 280.9728 
z
" style="fill:#4090d3;stroke:#000000;stroke-linejoin:miter;"/>
   </g>
   <g id="patch_12">
    <path clip-path="url(#peca006d378)" d="M 103.051636 307.584 
L 106.298182 307.584 
L 106.298182 307.584 
L 103.051636 307.584 
z
" style="fill:#4090d3;stroke:#000000;stroke-linejoin:miter;"/>
   </g>
   <g id="patch_13">
    <path clip-path="url(#peca006d378)" d="M 106.298182 307.584 
L 109.544727 307.584 
L 109.544727 294.2784 
L 106.298182 294.2784 
z
" style="fill:#4090d3;stroke:#000000;stroke-linejoin:miter;"/>
   </g>
   <g id="patch_14">
    <path clip-path="url(#peca006d378)" d="M 109.544727 307.584 
L 112.791273 307.584 
L 112.791273 294.2784 
L 109.544727 294.2784 
z
" style="fill:#4090d3;stroke:#000000;stroke-linejoin:miter;"/>
   </g>
   <g id="patch_15">
    <path clip-path="url(#peca006d378)" d="M 112.791273 307.584 
L 116.037818 307.584 
L 116.037818 307.584 
L 112.791273 307.584 
z
" style="fill:#4090d3;stroke:#000000;stroke-linejoin:miter;"/>
   </g>
   <g id="patch_16">
    <path clip-path="url(#peca006d378)" d="M 116.037818 307.584 
L 119.284364 307.584 
L 119.284364 307.584 
L 116.037818 307.584 
z
" style="fill:#4090d3;stroke:#000000;stroke-linejoin:miter;"/>
   </g>
   <g id="patch_17">
    <path clip-path="url(#peca006d378)" d="M 119.284364 307.584 
L 122.530909 307.584 
L 122.530909 307.584 
L 119.284364 307.584 
z
" style="fill:#4090d3;stroke:#000000;stroke-linejoin:miter;"/>
   </g>
   <g id="patch_18">
    <path clip-path="url(#peca006d378)" d="M 122.530909 307.584 
L 125.777455 307.584 
L 125.777455 307.584 
L 122.530909 307.584 
z
" style="fill:#4090d3;stroke:#000000;stroke-linejoin:miter;"/>
   </g>
   <g id="patch_19">
    <path clip-path="url(#peca006d378)" d="M 125.777455 307.584 
L 129.024 307.584 
L 129.024 294.2784 
L 125.777455 294.2784 
z
" style="fill:#4090d3;stroke:#000000;stroke-linejoin:miter;"/>
   </g>
   <g id="patch_20">
    <path clip-path="url(#peca006d378)" d="M 129.024 307.584 
L 132.270545 307.584 
L 132.270545 307.584 
L 129.024 307.584 
z
" style="fill:#4090d3;stroke:#000000;stroke-linejoin:miter;"/>
   </g>
   <g id="patch_21">
    <path clip-path="url(#peca006d378)" d="M 132.270545 307.584 
L 135.517091 307.584 
L 135.517091 307.584 
L 132.270545 307.584 
z
" style="fill:#4090d3;stroke:#000000;stroke-linejoin:miter;"/>
   </g>
   <g id="patch_22">
    <path clip-path="url(#peca006d378)" d="M 135.517091 307.584 
L 138.763636 307.584 
L 138.763636 294.2784 
L 135.517091 294.2784 
z
" style="fill:#4090d3;stroke:#000000;stroke-linejoin:miter;"/>
   </g>
   <g id="patch_23">
    <path clip-path="url(#peca006d378)" d="M 138.763636 307.584 
L 142.010182 307.584 
L 142.010182 294.2784 
L 138.763636 294.2784 
z
" style="fill:#4090d3;stroke:#000000;stroke-linejoin:miter;"/>
   </g>
   <g id="patch_24">
    <path clip-path="url(#peca006d378)" d="M 142.010182 307.584 
L 145.256727 307.584 
L 145.256727 294.2784 
L 142.010182 294.2784 
z
" style="fill:#4090d3;stroke:#000000;stroke-linejoin:miter;"/>
   </g>
   <g id="patch_25">
    <path clip-path="url(#peca006d378)" d="M 145.256727 307.584 
L 148.503273 307.584 
L 148.503273 280.9728 
L 145.256727 280.9728 
z
" style="fill:#4090d3;stroke:#000000;stroke-linejoin:miter;"/>
   </g>
   <g id="patch_26">
    <path clip-path="url(#peca006d378)" d="M 148.503273 307.584 
L 151.749818 307.584 
L 151.749818 307.584 
L 148.503273 307.584 
z
" style="fill:#4090d3;stroke:#000000;stroke-linejoin:miter;"/>
   </g>
   <g id="patch_27">
    <path clip-path="url(#peca006d378)" d="M 151.749818 307.584 
L 154.996364 307.584 
L 154.996364 307.584 
L 151.749818 307.584 
z
" style="fill:#4090d3;stroke:#000000;stroke-linejoin:miter;"/>
   </g>
   <g id="patch_28">
    <path clip-path="url(#peca006d378)" d="M 154.996364 307.584 
L 158.242909 307.584 
L 158.242909 294.2784 
L 154.996364 294.2784 
z
" style="fill:#4090d3;stroke:#000000;stroke-linejoin:miter;"/>
   </g>
   <g id="patch_29">
    <path clip-path="url(#peca006d378)" d="M 158.242909 307.584 
L 161.489455 307.584 
L 161.489455 307.584 
L 158.242909 307.584 
z
" style="fill:#4090d3;stroke:#000000;stroke-linejoin:miter;"/>
   </g>
   <g id="patch_30">
    <path clip-path="url(#peca006d378)" d="M 161.489455 307.584 
L 164.736 307.584 
L 164.736 280.9728 
L 161.489455 280.9728 
z
" style="fill:#4090d3;stroke:#000000;stroke-linejoin:miter;"/>
   </g>
   <g id="patch_31">
    <path clip-path="url(#peca006d378)" d="M 164.736 307.584 
L 167.982545 307.584 
L 167.982545 307.584 
L 164.736 307.584 
z
" style="fill:#4090d3;stroke:#000000;stroke-linejoin:miter;"/>
   </g>
   <g id="patch_32">
    <path clip-path="url(#peca006d378)" d="M 167.982545 307.584 
L 171.229091 307.584 
L 171.229091 267.6672 
L 167.982545 267.6672 
z
" style="fill:#4090d3;stroke:#000000;stroke-linejoin:miter;"/>
   </g>
   <g id="patch_33">
    <path clip-path="url(#peca006d378)" d="M 171.229091 307.584 
L 174.475636 307.584 
L 174.475636 241.056 
L 171.229091 241.056 
z
" style="fill:#4090d3;stroke:#000000;stroke-linejoin:miter;"/>
   </g>
   <g id="patch_34">
    <path clip-path="url(#peca006d378)" d="M 174.475636 307.584 
L 177.722182 307.584 
L 177.722182 307.584 
L 174.475636 307.584 
z
" style="fill:#4090d3;stroke:#000000;stroke-linejoin:miter;"/>
   </g>
   <g id="patch_35">
    <path clip-path="url(#peca006d378)" d="M 177.722182 307.584 
L 180.968727 307.584 
L 180.968727 294.2784 
L 177.722182 294.2784 
z
" style="fill:#4090d3;stroke:#000000;stroke-linejoin:miter;"/>
   </g>
   <g id="patch_36">
    <path clip-path="url(#peca006d378)" d="M 180.968727 307.584 
L 184.215273 307.584 
L 184.215273 307.584 
L 180.968727 307.584 
z
" style="fill:#4090d3;stroke:#000000;stroke-linejoin:miter;"/>
   </g>
   <g id="patch_37">
    <path clip-path="url(#peca006d378)" d="M 184.215273 307.584 
L 187.461818 307.584 
L 187.461818 307.584 
L 184.215273 307.584 
z
" style="fill:#4090d3;stroke:#000000;stroke-linejoin:miter;"/>
   </g>
   <g id="patch_38">
    <path clip-path="url(#peca006d378)" d="M 187.461818 307.584 
L 190.708364 307.584 
L 190.708364 280.9728 
L 187.461818 280.9728 
z
" style="fill:#4090d3;stroke:#000000;stroke-linejoin:miter;"/>
   </g>
   <g id="patch_39">
    <path clip-path="url(#peca006d378)" d="M 190.708364 307.584 
L 193.954909 307.584 
L 193.954909 294.2784 
L 190.708364 294.2784 
z
" style="fill:#4090d3;stroke:#000000;stroke-linejoin:miter;"/>
   </g>
   <g id="patch_40">
    <path clip-path="url(#peca006d378)" d="M 193.954909 307.584 
L 197.201455 307.584 
L 197.201455 307.584 
L 193.954909 307.584 
z
" style="fill:#4090d3;stroke:#000000;stroke-linejoin:miter;"/>
   </g>
   <g id="patch_41">
    <path clip-path="url(#peca006d378)" d="M 197.201455 307.584 
L 200.448 307.584 
L 200.448 307.584 
L 197.201455 307.584 
z
" style="fill:#4090d3;stroke:#000000;stroke-linejoin:miter;"/>
   </g>
   <g id="patch_42">
    <path clip-path="url(#peca006d378)" d="M 200.448 307.584 
L 203.694545 307.584 
L 203.694545 280.9728 
L 200.448 280.9728 
z
" style="fill:#4090d3;stroke:#000000;stroke-linejoin:miter;"/>
   </g>
   <g id="patch_43">
    <path clip-path="url(#peca006d378)" d="M 203.694545 307.584 
L 206.941091 307.584 
L 206.941091 294.2784 
L 203.694545 294.2784 
z
" style="fill:#4090d3;stroke:#000000;stroke-linejoin:miter;"/>
   </g>
   <g id="patch_44">
    <path clip-path="url(#peca006d378)" d="M 206.941091 307.584 
L 210.187636 307.584 
L 210.187636 267.6672 
L 206.941091 267.6672 
z
" style="fill:#4090d3;stroke:#000000;stroke-linejoin:miter;"/>
   </g>
   <g id="patch_45">
    <path clip-path="url(#peca006d378)" d="M 210.187636 307.584 
L 213.434182 307.584 
L 213.434182 254.3616 
L 210.187636 254.3616 
z
" style="fill:#4090d3;stroke:#000000;stroke-linejoin:miter;"/>
   </g>
   <g id="patch_46">
    <path clip-path="url(#peca006d378)" d="M 213.434182 307.584 
L 216.680727 307.584 
L 216.680727 307.584 
L 213.434182 307.584 
z
" style="fill:#4090d3;stroke:#000000;stroke-linejoin:miter;"/>
   </g>
   <g id="patch_47">
    <path clip-path="url(#peca006d378)" d="M 216.680727 307.584 
L 219.927273 307.584 
L 219.927273 294.2784 
L 216.680727 294.2784 
z
" style="fill:#4090d3;stroke:#000000;stroke-linejoin:miter;"/>
   </g>
   <g id="patch_48">
    <path clip-path="url(#peca006d378)" d="M 219.927273 307.584 
L 223.173818 307.584 
L 223.173818 307.584 
L 219.927273 307.584 
z
" style="fill:#4090d3;stroke:#000000;stroke-linejoin:miter;"/>
   </g>
   <g id="patch_49">
    <path clip-path="url(#peca006d378)" d="M 223.173818 307.584 
L 226.420364 307.584 
L 226.420364 267.6672 
L 223.173818 267.6672 
z
" style="fill:#4090d3;stroke:#000000;stroke-linejoin:miter;"/>
   </g>
   <g id="patch_50">
    <path clip-path="url(#peca006d378)" d="M 226.420364 307.584 
L 229.666909 307.584 
L 229.666909 280.9728 
L 226.420364 280.9728 
z
" style="fill:#4090d3;stroke:#000000;stroke-linejoin:miter;"/>
   </g>
   <g id="patch_51">
    <path clip-path="url(#peca006d378)" d="M 229.666909 307.584 
L 232.913455 307.584 
L 232.913455 294.2784 
L 229.666909 294.2784 
z
" style="fill:#4090d3;stroke:#000000;stroke-linejoin:miter;"/>
   </g>
   <g id="patch_52">
    <path clip-path="url(#peca006d378)" d="M 232.913455 307.584 
L 236.16 307.584 
L 236.16 307.584 
L 232.913455 307.584 
z
" style="fill:#4090d3;stroke:#000000;stroke-linejoin:miter;"/>
   </g>
   <g id="patch_53">
    <path clip-path="url(#peca006d378)" d="M 236.16 307.584 
L 239.406545 307.584 
L 239.406545 280.9728 
L 236.16 280.9728 
z
" style="fill:#4090d3;stroke:#000000;stroke-linejoin:miter;"/>
   </g>
   <g id="patch_54">
    <path clip-path="url(#peca006d378)" d="M 239.406545 307.584 
L 242.653091 307.584 
L 242.653091 307.584 
L 239.406545 307.584 
z
" style="fill:#4090d3;stroke:#000000;stroke-linejoin:miter;"/>
   </g>
   <g id="patch_55">
    <path clip-path="url(#peca006d378)" d="M 242.653091 307.584 
L 245.899636 307.584 
L 245.899636 280.9728 
L 242.653091 280.9728 
z
" style="fill:#4090d3;stroke:#000000;stroke-linejoin:miter;"/>
   </g>
   <g id="patch_56">
    <path clip-path="url(#peca006d378)" d="M 245.899636 307.584 
L 249.146182 307.584 
L 249.146182 227.7504 
L 245.899636 227.7504 
z
" style="fill:#4090d3;stroke:#000000;stroke-linejoin:miter;"/>
   </g>
   <g id="patch_57">
    <path clip-path="url(#peca006d378)" d="M 249.146182 307.584 
L 252.392727 307.584 
L 252.392727 241.056 
L 249.146182 241.056 
z
" style="fill:#4090d3;stroke:#000000;stroke-linejoin:miter;"/>
   </g>
   <g id="patch_58">
    <path clip-path="url(#peca006d378)" d="M 252.392727 307.584 
L 255.639273 307.584 
L 255.639273 241.056 
L 252.392727 241.056 
z
" style="fill:#4090d3;stroke:#000000;stroke-linejoin:miter;"/>
   </g>
   <g id="patch_59">
    <path clip-path="url(#peca006d378)" d="M 255.639273 307.584 
L 258.885818 307.584 
L 258.885818 307.584 
L 255.639273 307.584 
z
" style="fill:#4090d3;stroke:#000000;stroke-linejoin:miter;"/>
   </g>
   <g id="patch_60">
    <path clip-path="url(#peca006d378)" d="M 258.885818 307.584 
L 262.132364 307.584 
L 262.132364 280.9728 
L 258.885818 280.9728 
z
" style="fill:#4090d3;stroke:#000000;stroke-linejoin:miter;"/>
   </g>
   <g id="patch_61">
    <path clip-path="url(#peca006d378)" d="M 262.132364 307.584 
L 265.378909 307.584 
L 265.378909 294.2784 
L 262.132364 294.2784 
z
" style="fill:#4090d3;stroke:#000000;stroke-linejoin:miter;"/>
   </g>
   <g id="patch_62">
    <path clip-path="url(#peca006d378)" d="M 265.378909 307.584 
L 268.625455 307.584 
L 268.625455 307.584 
L 265.378909 307.584 
z
" style="fill:#4090d3;stroke:#000000;stroke-linejoin:miter;"/>
   </g>
   <g id="patch_63">
    <path clip-path="url(#peca006d378)" d="M 268.625455 307.584 
L 271.872 307.584 
L 271.872 267.6672 
L 268.625455 267.6672 
z
" style="fill:#4090d3;stroke:#000000;stroke-linejoin:miter;"/>
   </g>
   <g id="patch_64">
    <path clip-path="url(#peca006d378)" d="M 271.872 307.584 
L 275.118545 307.584 
L 275.118545 267.6672 
L 271.872 267.6672 
z
" style="fill:#4090d3;stroke:#000000;stroke-linejoin:miter;"/>
   </g>
   <g id="patch_65">
    <path clip-path="url(#peca006d378)" d="M 275.118545 307.584 
L 278.365091 307.584 
L 278.365091 307.584 
L 275.118545 307.584 
z
" style="fill:#4090d3;stroke:#000000;stroke-linejoin:miter;"/>
   </g>
   <g id="patch_66">
    <path clip-path="url(#peca006d378)" d="M 278.365091 307.584 
L 281.611636 307.584 
L 281.611636 294.2784 
L 278.365091 294.2784 
z
" style="fill:#4090d3;stroke:#000000;stroke-linejoin:miter;"/>
   </g>
   <g id="patch_67">
    <path clip-path="url(#peca006d378)" d="M 281.611636 307.584 
L 284.858182 307.584 
L 284.858182 294.2784 
L 281.611636 294.2784 
z
" style="fill:#4090d3;stroke:#000000;stroke-linejoin:miter;"/>
   </g>
   <g id="patch_68">
    <path clip-path="url(#peca006d378)" d="M 284.858182 307.584 
L 288.104727 307.584 
L 288.104727 294.2784 
L 284.858182 294.2784 
z
" style="fill:#4090d3;stroke:#000000;stroke-linejoin:miter;"/>
   </g>
   <g id="patch_69">
    <path clip-path="url(#peca006d378)" d="M 288.104727 307.584 
L 291.351273 307.584 
L 291.351273 294.2784 
L 288.104727 294.2784 
z
" style="fill:#4090d3;stroke:#000000;stroke-linejoin:miter;"/>
   </g>
   <g id="patch_70">
    <path clip-path="url(#peca006d378)" d="M 291.351273 307.584 
L 294.597818 307.584 
L 294.597818 307.584 
L 291.351273 307.584 
z
" style="fill:#4090d3;stroke:#000000;stroke-linejoin:miter;"/>
   </g>
   <g id="patch_71">
    <path clip-path="url(#peca006d378)" d="M 294.597818 307.584 
L 297.844364 307.584 
L 297.844364 307.584 
L 294.597818 307.584 
z
" style="fill:#4090d3;stroke:#000000;stroke-linejoin:miter;"/>
   </g>
   <g id="patch_72">
    <path clip-path="url(#peca006d378)" d="M 297.844364 307.584 
L 301.090909 307.584 
L 301.090909 294.2784 
L 297.844364 294.2784 
z
" style="fill:#4090d3;stroke:#000000;stroke-linejoin:miter;"/>
   </g>
   <g id="patch_73">
    <path clip-path="url(#peca006d378)" d="M 301.090909 307.584 
L 304.337455 307.584 
L 304.337455 280.9728 
L 301.090909 280.9728 
z
" style="fill:#4090d3;stroke:#000000;stroke-linejoin:miter;"/>
   </g>
   <g id="patch_74">
    <path clip-path="url(#peca006d378)" d="M 304.337455 307.584 
L 307.584 307.584 
L 307.584 280.9728 
L 304.337455 280.9728 
z
" style="fill:#4090d3;stroke:#000000;stroke-linejoin:miter;"/>
   </g>
   <g id="patch_75">
    <path clip-path="url(#peca006d378)" d="M 307.584 307.584 
L 310.830545 307.584 
L 310.830545 294.2784 
L 307.584 294.2784 
z
" style="fill:#4090d3;stroke:#000000;stroke-linejoin:miter;"/>
   </g>
   <g id="patch_76">
    <path clip-path="url(#peca006d378)" d="M 310.830545 307.584 
L 314.077091 307.584 
L 314.077091 294.2784 
L 310.830545 294.2784 
z
" style="fill:#4090d3;stroke:#000000;stroke-linejoin:miter;"/>
   </g>
   <g id="patch_77">
    <path clip-path="url(#peca006d378)" d="M 314.077091 307.584 
L 317.323636 307.584 
L 317.323636 307.584 
L 314.077091 307.584 
z
" style="fill:#4090d3;stroke:#000000;stroke-linejoin:miter;"/>
   </g>
   <g id="patch_78">
    <path clip-path="url(#peca006d378)" d="M 317.323636 307.584 
L 320.570182 307.584 
L 320.570182 307.584 
L 317.323636 307.584 
z
" style="fill:#4090d3;stroke:#000000;stroke-linejoin:miter;"/>
   </g>
   <g id="patch_79">
    <path clip-path="url(#peca006d378)" d="M 320.570182 307.584 
L 323.816727 307.584 
L 323.816727 294.2784 
L 320.570182 294.2784 
z
" style="fill:#4090d3;stroke:#000000;stroke-linejoin:miter;"/>
   </g>
   <g id="patch_80">
    <path clip-path="url(#peca006d378)" d="M 323.816727 307.584 
L 327.063273 307.584 
L 327.063273 267.6672 
L 323.816727 267.6672 
z
" style="fill:#4090d3;stroke:#000000;stroke-linejoin:miter;"/>
   </g>
   <g id="patch_81">
    <path clip-path="url(#peca006d378)" d="M 327.063273 307.584 
L 330.309818 307.584 
L 330.309818 307.584 
L 327.063273 307.584 
z
" style="fill:#4090d3;stroke:#000000;stroke-linejoin:miter;"/>
   </g>
   <g id="patch_82">
    <path clip-path="url(#peca006d378)" d="M 330.309818 307.584 
L 333.556364 307.584 
L 333.556364 280.9728 
L 330.309818 280.9728 
z
" style="fill:#4090d3;stroke:#000000;stroke-linejoin:miter;"/>
   </g>
   <g id="patch_83">
    <path clip-path="url(#peca006d378)" d="M 333.556364 307.584 
L 336.802909 307.584 
L 336.802909 294.2784 
L 333.556364 294.2784 
z
" style="fill:#4090d3;stroke:#000000;stroke-linejoin:miter;"/>
   </g>
   <g id="patch_84">
    <path clip-path="url(#peca006d378)" d="M 336.802909 307.584 
L 340.049455 307.584 
L 340.049455 307.584 
L 336.802909 307.584 
z
" style="fill:#4090d3;stroke:#000000;stroke-linejoin:miter;"/>
   </g>
   <g id="patch_85">
    <path clip-path="url(#peca006d378)" d="M 340.049455 307.584 
L 343.296 307.584 
L 343.296 227.7504 
L 340.049455 227.7504 
z
" style="fill:#4090d3;stroke:#000000;stroke-linejoin:miter;"/>
   </g>
   <g id="patch_86">
    <path clip-path="url(#peca006d378)" d="M 343.296 307.584 
L 346.542545 307.584 
L 346.542545 241.056 
L 343.296 241.056 
z
" style="fill:#4090d3;stroke:#000000;stroke-linejoin:miter;"/>
   </g>
   <g id="patch_87">
    <path clip-path="url(#peca006d378)" d="M 346.542545 307.584 
L 349.789091 307.584 
L 349.789091 294.2784 
L 346.542545 294.2784 
z
" style="fill:#4090d3;stroke:#000000;stroke-linejoin:miter;"/>
   </g>
   <g id="patch_88">
    <path clip-path="url(#peca006d378)" d="M 349.789091 307.584 
L 353.035636 307.584 
L 353.035636 294.2784 
L 349.789091 294.2784 
z
" style="fill:#4090d3;stroke:#000000;stroke-linejoin:miter;"/>
   </g>
   <g id="patch_89">
    <path clip-path="url(#peca006d378)" d="M 353.035636 307.584 
L 356.282182 307.584 
L 356.282182 254.3616 
L 353.035636 254.3616 
z
" style="fill:#4090d3;stroke:#000000;stroke-linejoin:miter;"/>
   </g>
   <g id="patch_90">
    <path clip-path="url(#peca006d378)" d="M 356.282182 307.584 
L 359.528727 307.584 
L 359.528727 307.584 
L 356.282182 307.584 
z
" style="fill:#4090d3;stroke:#000000;stroke-linejoin:miter;"/>
   </g>
   <g id="patch_91">
    <path clip-path="url(#peca006d378)" d="M 359.528727 307.584 
L 362.775273 307.584 
L 362.775273 241.056 
L 359.528727 241.056 
z
" style="fill:#4090d3;stroke:#000000;stroke-linejoin:miter;"/>
   </g>
   <g id="patch_92">
    <path clip-path="url(#peca006d378)" d="M 362.775273 307.584 
L 366.021818 307.584 
L 366.021818 280.9728 
L 362.775273 280.9728 
z
" style="fill:#4090d3;stroke:#000000;stroke-linejoin:miter;"/>
   </g>
   <g id="patch_93">
    <path clip-path="url(#peca006d378)" d="M 366.021818 307.584 
L 369.268364 307.584 
L 369.268364 267.6672 
L 366.021818 267.6672 
z
" style="fill:#4090d3;stroke:#000000;stroke-linejoin:miter;"/>
   </g>
   <g id="patch_94">
    <path clip-path="url(#peca006d378)" d="M 369.268364 307.584 
L 372.514909 307.584 
L 372.514909 267.6672 
L 369.268364 267.6672 
z
" style="fill:#4090d3;stroke:#000000;stroke-linejoin:miter;"/>
   </g>
   <g id="patch_95">
    <path clip-path="url(#peca006d378)" d="M 372.514909 307.584 
L 375.761455 307.584 
L 375.761455 307.584 
L 372.514909 307.584 
z
" style="fill:#4090d3;stroke:#000000;stroke-linejoin:miter;"/>
   </g>
   <g id="patch_96">
    <path clip-path="url(#peca006d378)" d="M 375.761455 307.584 
L 379.008 307.584 
L 379.008 307.584 
L 375.761455 307.584 
z
" style="fill:#4090d3;stroke:#000000;stroke-linejoin:miter;"/>
   </g>
   <g id="patch_97">
    <path clip-path="url(#peca006d378)" d="M 379.008 307.584 
L 382.254545 307.584 
L 382.254545 147.9168 
L 379.008 147.9168 
z
" style="fill:#4090d3;stroke:#000000;stroke-linejoin:miter;"/>
   </g>
   <g id="patch_98">
    <path clip-path="url(#peca006d378)" d="M 382.254545 307.584 
L 385.501091 307.584 
L 385.501091 267.6672 
L 382.254545 267.6672 
z
" style="fill:#4090d3;stroke:#000000;stroke-linejoin:miter;"/>
   </g>
   <g id="patch_99">
    <path clip-path="url(#peca006d378)" d="M 385.501091 307.584 
L 388.747636 307.584 
L 388.747636 307.584 
L 385.501091 307.584 
z
" style="fill:#4090d3;stroke:#000000;stroke-linejoin:miter;"/>
   </g>
   <g id="patch_100">
    <path clip-path="url(#peca006d378)" d="M 388.747636 307.584 
L 391.994182 307.584 
L 391.994182 241.056 
L 388.747636 241.056 
z
" style="fill:#4090d3;stroke:#000000;stroke-linejoin:miter;"/>
   </g>
   <g id="patch_101">
    <path clip-path="url(#peca006d378)" d="M 391.994182 307.584 
L 395.240727 307.584 
L 395.240727 280.9728 
L 391.994182 280.9728 
z
" style="fill:#4090d3;stroke:#000000;stroke-linejoin:miter;"/>
   </g>
   <g id="patch_102">
    <path clip-path="url(#peca006d378)" d="M 395.240727 307.584 
L 398.487273 307.584 
L 398.487273 68.0832 
L 395.240727 68.0832 
z
" style="fill:#4090d3;stroke:#000000;stroke-linejoin:miter;"/>
   </g>
   <g id="matplotlib.axis_1">
    <g id="xtick_1">
     <g id="line2d_1">
      <defs>
       <path d="M 0 0 
L 0 3.5 
" id="m19f5bff317" style="stroke:#000000;stroke-width:0.8;"/>
      </defs>
      <g>
       <use style="stroke:#000000;stroke-width:0.8;" x="89.292468" xlink:href="#m19f5bff317" y="307.584"/>
      </g>
     </g>
     <g id="text_1">
      <!-- 20 -->
      <g transform="translate(82.929968 322.182437)scale(0.1 -0.1)">
       <defs>
        <path d="M 1228 531 
L 3431 531 
L 3431 0 
L 469 0 
L 469 531 
Q 828 903 1448 1529 
Q 2069 2156 2228 2338 
Q 2531 2678 2651 2914 
Q 2772 3150 2772 3378 
Q 2772 3750 2511 3984 
Q 2250 4219 1831 4219 
Q 1534 4219 1204 4116 
Q 875 4013 500 3803 
L 500 4441 
Q 881 4594 1212 4672 
Q 1544 4750 1819 4750 
Q 2544 4750 2975 4387 
Q 3406 4025 3406 3419 
Q 3406 3131 3298 2873 
Q 3191 2616 2906 2266 
Q 2828 2175 2409 1742 
Q 1991 1309 1228 531 
z
" id="DejaVuSans-32" transform="scale(0.015625)"/>
        <path d="M 2034 4250 
Q 1547 4250 1301 3770 
Q 1056 3291 1056 2328 
Q 1056 1369 1301 889 
Q 1547 409 2034 409 
Q 2525 409 2770 889 
Q 3016 1369 3016 2328 
Q 3016 3291 2770 3770 
Q 2525 4250 2034 4250 
z
M 2034 4750 
Q 2819 4750 3233 4129 
Q 3647 3509 3647 2328 
Q 3647 1150 3233 529 
Q 2819 -91 2034 -91 
Q 1250 -91 836 529 
Q 422 1150 422 2328 
Q 422 3509 836 4129 
Q 1250 4750 2034 4750 
z
" id="DejaVuSans-30" transform="scale(0.015625)"/>
       </defs>
       <use xlink:href="#DejaVuSans-32"/>
       <use x="63.623047" xlink:href="#DejaVuSans-30"/>
      </g>
     </g>
    </g>
    <g id="xtick_2">
     <g id="line2d_2">
      <g>
       <use style="stroke:#000000;stroke-width:0.8;" x="166.591169" xlink:href="#m19f5bff317" y="307.584"/>
      </g>
     </g>
     <g id="text_2">
      <!-- 40 -->
      <g transform="translate(160.228669 322.182437)scale(0.1 -0.1)">
       <defs>
        <path d="M 2419 4116 
L 825 1625 
L 2419 1625 
L 2419 4116 
z
M 2253 4666 
L 3047 4666 
L 3047 1625 
L 3713 1625 
L 3713 1100 
L 3047 1100 
L 3047 0 
L 2419 0 
L 2419 1100 
L 313 1100 
L 313 1709 
L 2253 4666 
z
" id="DejaVuSans-34" transform="scale(0.015625)"/>
       </defs>
       <use xlink:href="#DejaVuSans-34"/>
       <use x="63.623047" xlink:href="#DejaVuSans-30"/>
      </g>
     </g>
    </g>
    <g id="xtick_3">
     <g id="line2d_3">
      <g>
       <use style="stroke:#000000;stroke-width:0.8;" x="243.88987" xlink:href="#m19f5bff317" y="307.584"/>
      </g>
     </g>
     <g id="text_3">
      <!-- 60 -->
      <g transform="translate(237.52737 322.182437)scale(0.1 -0.1)">
       <defs>
        <path d="M 2113 2584 
Q 1688 2584 1439 2293 
Q 1191 2003 1191 1497 
Q 1191 994 1439 701 
Q 1688 409 2113 409 
Q 2538 409 2786 701 
Q 3034 994 3034 1497 
Q 3034 2003 2786 2293 
Q 2538 2584 2113 2584 
z
M 3366 4563 
L 3366 3988 
Q 3128 4100 2886 4159 
Q 2644 4219 2406 4219 
Q 1781 4219 1451 3797 
Q 1122 3375 1075 2522 
Q 1259 2794 1537 2939 
Q 1816 3084 2150 3084 
Q 2853 3084 3261 2657 
Q 3669 2231 3669 1497 
Q 3669 778 3244 343 
Q 2819 -91 2113 -91 
Q 1303 -91 875 529 
Q 447 1150 447 2328 
Q 447 3434 972 4092 
Q 1497 4750 2381 4750 
Q 2619 4750 2861 4703 
Q 3103 4656 3366 4563 
z
" id="DejaVuSans-36" transform="scale(0.015625)"/>
       </defs>
       <use xlink:href="#DejaVuSans-36"/>
       <use x="63.623047" xlink:href="#DejaVuSans-30"/>
      </g>
     </g>
    </g>
    <g id="xtick_4">
     <g id="line2d_4">
      <g>
       <use style="stroke:#000000;stroke-width:0.8;" x="321.188571" xlink:href="#m19f5bff317" y="307.584"/>
      </g>
     </g>
     <g id="text_4">
      <!-- 80 -->
      <g transform="translate(314.826071 322.182437)scale(0.1 -0.1)">
       <defs>
        <path d="M 2034 2216 
Q 1584 2216 1326 1975 
Q 1069 1734 1069 1313 
Q 1069 891 1326 650 
Q 1584 409 2034 409 
Q 2484 409 2743 651 
Q 3003 894 3003 1313 
Q 3003 1734 2745 1975 
Q 2488 2216 2034 2216 
z
M 1403 2484 
Q 997 2584 770 2862 
Q 544 3141 544 3541 
Q 544 4100 942 4425 
Q 1341 4750 2034 4750 
Q 2731 4750 3128 4425 
Q 3525 4100 3525 3541 
Q 3525 3141 3298 2862 
Q 3072 2584 2669 2484 
Q 3125 2378 3379 2068 
Q 3634 1759 3634 1313 
Q 3634 634 3220 271 
Q 2806 -91 2034 -91 
Q 1263 -91 848 271 
Q 434 634 434 1313 
Q 434 1759 690 2068 
Q 947 2378 1403 2484 
z
M 1172 3481 
Q 1172 3119 1398 2916 
Q 1625 2713 2034 2713 
Q 2441 2713 2670 2916 
Q 2900 3119 2900 3481 
Q 2900 3844 2670 4047 
Q 2441 4250 2034 4250 
Q 1625 4250 1398 4047 
Q 1172 3844 1172 3481 
z
" id="DejaVuSans-38" transform="scale(0.015625)"/>
       </defs>
       <use xlink:href="#DejaVuSans-38"/>
       <use x="63.623047" xlink:href="#DejaVuSans-30"/>
      </g>
     </g>
    </g>
    <g id="xtick_5">
     <g id="line2d_5">
      <g>
       <use style="stroke:#000000;stroke-width:0.8;" x="398.487273" xlink:href="#m19f5bff317" y="307.584"/>
      </g>
     </g>
     <g id="text_5">
      <!-- 100 -->
      <g transform="translate(388.943523 322.182437)scale(0.1 -0.1)">
       <defs>
        <path d="M 794 531 
L 1825 531 
L 1825 4091 
L 703 3866 
L 703 4441 
L 1819 4666 
L 2450 4666 
L 2450 531 
L 3481 531 
L 3481 0 
L 794 0 
L 794 531 
z
" id="DejaVuSans-31" transform="scale(0.015625)"/>
       </defs>
       <use xlink:href="#DejaVuSans-31"/>
       <use x="63.623047" xlink:href="#DejaVuSans-30"/>
       <use x="127.246094" xlink:href="#DejaVuSans-30"/>
      </g>
     </g>
    </g>
    <g id="text_6">
     <!-- Puntuación -->
     <g transform="translate(208.335781 335.860562)scale(0.1 -0.1)">
      <defs>
       <path d="M 1259 4147 
L 1259 2394 
L 2053 2394 
Q 2494 2394 2734 2622 
Q 2975 2850 2975 3272 
Q 2975 3691 2734 3919 
Q 2494 4147 2053 4147 
L 1259 4147 
z
M 628 4666 
L 2053 4666 
Q 2838 4666 3239 4311 
Q 3641 3956 3641 3272 
Q 3641 2581 3239 2228 
Q 2838 1875 2053 1875 
L 1259 1875 
L 1259 0 
L 628 0 
L 628 4666 
z
" id="DejaVuSans-50" transform="scale(0.015625)"/>
       <path d="M 544 1381 
L 544 3500 
L 1119 3500 
L 1119 1403 
Q 1119 906 1312 657 
Q 1506 409 1894 409 
Q 2359 409 2629 706 
Q 2900 1003 2900 1516 
L 2900 3500 
L 3475 3500 
L 3475 0 
L 2900 0 
L 2900 538 
Q 2691 219 2414 64 
Q 2138 -91 1772 -91 
Q 1169 -91 856 284 
Q 544 659 544 1381 
z
M 1991 3584 
L 1991 3584 
z
" id="DejaVuSans-75" transform="scale(0.015625)"/>
       <path d="M 3513 2113 
L 3513 0 
L 2938 0 
L 2938 2094 
Q 2938 2591 2744 2837 
Q 2550 3084 2163 3084 
Q 1697 3084 1428 2787 
Q 1159 2491 1159 1978 
L 1159 0 
L 581 0 
L 581 3500 
L 1159 3500 
L 1159 2956 
Q 1366 3272 1645 3428 
Q 1925 3584 2291 3584 
Q 2894 3584 3203 3211 
Q 3513 2838 3513 2113 
z
" id="DejaVuSans-6e" transform="scale(0.015625)"/>
       <path d="M 1172 4494 
L 1172 3500 
L 2356 3500 
L 2356 3053 
L 1172 3053 
L 1172 1153 
Q 1172 725 1289 603 
Q 1406 481 1766 481 
L 2356 481 
L 2356 0 
L 1766 0 
Q 1100 0 847 248 
Q 594 497 594 1153 
L 594 3053 
L 172 3053 
L 172 3500 
L 594 3500 
L 594 4494 
L 1172 4494 
z
" id="DejaVuSans-74" transform="scale(0.015625)"/>
       <path d="M 2194 1759 
Q 1497 1759 1228 1600 
Q 959 1441 959 1056 
Q 959 750 1161 570 
Q 1363 391 1709 391 
Q 2188 391 2477 730 
Q 2766 1069 2766 1631 
L 2766 1759 
L 2194 1759 
z
M 3341 1997 
L 3341 0 
L 2766 0 
L 2766 531 
Q 2569 213 2275 61 
Q 1981 -91 1556 -91 
Q 1019 -91 701 211 
Q 384 513 384 1019 
Q 384 1609 779 1909 
Q 1175 2209 1959 2209 
L 2766 2209 
L 2766 2266 
Q 2766 2663 2505 2880 
Q 2244 3097 1772 3097 
Q 1472 3097 1187 3025 
Q 903 2953 641 2809 
L 641 3341 
Q 956 3463 1253 3523 
Q 1550 3584 1831 3584 
Q 2591 3584 2966 3190 
Q 3341 2797 3341 1997 
z
" id="DejaVuSans-61" transform="scale(0.015625)"/>
       <path d="M 3122 3366 
L 3122 2828 
Q 2878 2963 2633 3030 
Q 2388 3097 2138 3097 
Q 1578 3097 1268 2742 
Q 959 2388 959 1747 
Q 959 1106 1268 751 
Q 1578 397 2138 397 
Q 2388 397 2633 464 
Q 2878 531 3122 666 
L 3122 134 
Q 2881 22 2623 -34 
Q 2366 -91 2075 -91 
Q 1284 -91 818 406 
Q 353 903 353 1747 
Q 353 2603 823 3093 
Q 1294 3584 2113 3584 
Q 2378 3584 2631 3529 
Q 2884 3475 3122 3366 
z
" id="DejaVuSans-63" transform="scale(0.015625)"/>
       <path d="M 603 3500 
L 1178 3500 
L 1178 0 
L 603 0 
L 603 3500 
z
M 603 4863 
L 1178 4863 
L 1178 4134 
L 603 4134 
L 603 4863 
z
" id="DejaVuSans-69" transform="scale(0.015625)"/>
       <path d="M 1959 3097 
Q 1497 3097 1228 2736 
Q 959 2375 959 1747 
Q 959 1119 1226 758 
Q 1494 397 1959 397 
Q 2419 397 2687 759 
Q 2956 1122 2956 1747 
Q 2956 2369 2687 2733 
Q 2419 3097 1959 3097 
z
M 1959 3584 
Q 2709 3584 3137 3096 
Q 3566 2609 3566 1747 
Q 3566 888 3137 398 
Q 2709 -91 1959 -91 
Q 1206 -91 779 398 
Q 353 888 353 1747 
Q 353 2609 779 3096 
Q 1206 3584 1959 3584 
z
M 2394 5119 
L 3016 5119 
L 1997 3944 
L 1519 3944 
L 2394 5119 
z
" id="DejaVuSans-f3" transform="scale(0.015625)"/>
      </defs>
      <use xlink:href="#DejaVuSans-50"/>
      <use x="58.552734" xlink:href="#DejaVuSans-75"/>
      <use x="121.931641" xlink:href="#DejaVuSans-6e"/>
      <use x="185.310547" xlink:href="#DejaVuSans-74"/>
      <use x="224.519531" xlink:href="#DejaVuSans-75"/>
      <use x="287.898438" xlink:href="#DejaVuSans-61"/>
      <use x="349.177734" xlink:href="#DejaVuSans-63"/>
      <use x="404.158203" xlink:href="#DejaVuSans-69"/>
      <use x="431.941406" xlink:href="#DejaVuSans-f3"/>
      <use x="493.123047" xlink:href="#DejaVuSans-6e"/>
     </g>
    </g>
   </g>
   <g id="matplotlib.axis_2">
    <g id="ytick_1">
     <g id="line2d_6">
      <defs>
       <path d="M 0 0 
L -3.5 0 
" id="m1d95cb805c" style="stroke:#000000;stroke-width:0.8;"/>
      </defs>
      <g>
       <use style="stroke:#000000;stroke-width:0.8;" x="57.6" xlink:href="#m1d95cb805c" y="307.584"/>
      </g>
     </g>
     <g id="text_7">
      <!-- 0 -->
      <g transform="translate(44.2375 311.383219)scale(0.1 -0.1)">
       <use xlink:href="#DejaVuSans-30"/>
      </g>
     </g>
    </g>
    <g id="ytick_2">
     <g id="line2d_7">
      <g>
       <use style="stroke:#000000;stroke-width:0.8;" x="57.6" xlink:href="#m1d95cb805c" y="280.9728"/>
      </g>
     </g>
     <g id="text_8">
      <!-- 2 -->
      <g transform="translate(44.2375 284.772019)scale(0.1 -0.1)">
       <use xlink:href="#DejaVuSans-32"/>
      </g>
     </g>
    </g>
    <g id="ytick_3">
     <g id="line2d_8">
      <g>
       <use style="stroke:#000000;stroke-width:0.8;" x="57.6" xlink:href="#m1d95cb805c" y="241.056"/>
      </g>
     </g>
     <g id="text_9">
      <!-- 5 -->
      <g transform="translate(44.2375 244.855219)scale(0.1 -0.1)">
       <defs>
        <path d="M 691 4666 
L 3169 4666 
L 3169 4134 
L 1269 4134 
L 1269 2991 
Q 1406 3038 1543 3061 
Q 1681 3084 1819 3084 
Q 2600 3084 3056 2656 
Q 3513 2228 3513 1497 
Q 3513 744 3044 326 
Q 2575 -91 1722 -91 
Q 1428 -91 1123 -41 
Q 819 9 494 109 
L 494 744 
Q 775 591 1075 516 
Q 1375 441 1709 441 
Q 2250 441 2565 725 
Q 2881 1009 2881 1497 
Q 2881 1984 2565 2268 
Q 2250 2553 1709 2553 
Q 1456 2553 1204 2497 
Q 953 2441 691 2322 
L 691 4666 
z
" id="DejaVuSans-35" transform="scale(0.015625)"/>
       </defs>
       <use xlink:href="#DejaVuSans-35"/>
      </g>
     </g>
    </g>
    <g id="ytick_4">
     <g id="line2d_9">
      <g>
       <use style="stroke:#000000;stroke-width:0.8;" x="57.6" xlink:href="#m1d95cb805c" y="214.4448"/>
      </g>
     </g>
     <g id="text_10">
      <!-- 7 -->
      <g transform="translate(44.2375 218.244019)scale(0.1 -0.1)">
       <defs>
        <path d="M 525 4666 
L 3525 4666 
L 3525 4397 
L 1831 0 
L 1172 0 
L 2766 4134 
L 525 4134 
L 525 4666 
z
" id="DejaVuSans-37" transform="scale(0.015625)"/>
       </defs>
       <use xlink:href="#DejaVuSans-37"/>
      </g>
     </g>
    </g>
    <g id="ytick_5">
     <g id="line2d_10">
      <g>
       <use style="stroke:#000000;stroke-width:0.8;" x="57.6" xlink:href="#m1d95cb805c" y="174.528"/>
      </g>
     </g>
     <g id="text_11">
      <!-- 10 -->
      <g transform="translate(37.875 178.327219)scale(0.1 -0.1)">
       <use xlink:href="#DejaVuSans-31"/>
       <use x="63.623047" xlink:href="#DejaVuSans-30"/>
      </g>
     </g>
    </g>
    <g id="ytick_6">
     <g id="line2d_11">
      <g>
       <use style="stroke:#000000;stroke-width:0.8;" x="57.6" xlink:href="#m1d95cb805c" y="147.9168"/>
      </g>
     </g>
     <g id="text_12">
      <!-- 12 -->
      <g transform="translate(37.875 151.716019)scale(0.1 -0.1)">
       <use xlink:href="#DejaVuSans-31"/>
       <use x="63.623047" xlink:href="#DejaVuSans-32"/>
      </g>
     </g>
    </g>
    <g id="ytick_7">
     <g id="line2d_12">
      <g>
       <use style="stroke:#000000;stroke-width:0.8;" x="57.6" xlink:href="#m1d95cb805c" y="108"/>
      </g>
     </g>
     <g id="text_13">
      <!-- 15 -->
      <g transform="translate(37.875 111.799219)scale(0.1 -0.1)">
       <use xlink:href="#DejaVuSans-31"/>
       <use x="63.623047" xlink:href="#DejaVuSans-35"/>
      </g>
     </g>
    </g>
    <g id="ytick_8">
     <g id="line2d_13">
      <g>
       <use style="stroke:#000000;stroke-width:0.8;" x="57.6" xlink:href="#m1d95cb805c" y="81.3888"/>
      </g>
     </g>
     <g id="text_14">
      <!-- 17 -->
      <g transform="translate(37.875 85.188019)scale(0.1 -0.1)">
       <use xlink:href="#DejaVuSans-31"/>
       <use x="63.623047" xlink:href="#DejaVuSans-37"/>
      </g>
     </g>
    </g>
    <g id="ytick_9">
     <g id="line2d_14">
      <g>
       <use style="stroke:#000000;stroke-width:0.8;" x="57.6" xlink:href="#m1d95cb805c" y="41.472"/>
      </g>
     </g>
     <g id="text_15">
      <!-- 20 -->
      <g transform="translate(37.875 45.271219)scale(0.1 -0.1)">
       <use xlink:href="#DejaVuSans-32"/>
       <use x="63.623047" xlink:href="#DejaVuSans-30"/>
      </g>
     </g>
    </g>
    <g id="text_16">
     <!-- Frecuencia -->
     <g transform="translate(31.795312 201.426437)rotate(-90)scale(0.1 -0.1)">
      <defs>
       <path d="M 628 4666 
L 3309 4666 
L 3309 4134 
L 1259 4134 
L 1259 2759 
L 3109 2759 
L 3109 2228 
L 1259 2228 
L 1259 0 
L 628 0 
L 628 4666 
z
" id="DejaVuSans-46" transform="scale(0.015625)"/>
       <path d="M 2631 2963 
Q 2534 3019 2420 3045 
Q 2306 3072 2169 3072 
Q 1681 3072 1420 2755 
Q 1159 2438 1159 1844 
L 1159 0 
L 581 0 
L 581 3500 
L 1159 3500 
L 1159 2956 
Q 1341 3275 1631 3429 
Q 1922 3584 2338 3584 
Q 2397 3584 2469 3576 
Q 2541 3569 2628 3553 
L 2631 2963 
z
" id="DejaVuSans-72" transform="scale(0.015625)"/>
       <path d="M 3597 1894 
L 3597 1613 
L 953 1613 
Q 991 1019 1311 708 
Q 1631 397 2203 397 
Q 2534 397 2845 478 
Q 3156 559 3463 722 
L 3463 178 
Q 3153 47 2828 -22 
Q 2503 -91 2169 -91 
Q 1331 -91 842 396 
Q 353 884 353 1716 
Q 353 2575 817 3079 
Q 1281 3584 2069 3584 
Q 2775 3584 3186 3129 
Q 3597 2675 3597 1894 
z
M 3022 2063 
Q 3016 2534 2758 2815 
Q 2500 3097 2075 3097 
Q 1594 3097 1305 2825 
Q 1016 2553 972 2059 
L 3022 2063 
z
" id="DejaVuSans-65" transform="scale(0.015625)"/>
      </defs>
      <use xlink:href="#DejaVuSans-46"/>
      <use x="50.269531" xlink:href="#DejaVuSans-72"/>
      <use x="89.132812" xlink:href="#DejaVuSans-65"/>
      <use x="150.65625" xlink:href="#DejaVuSans-63"/>
      <use x="205.636719" xlink:href="#DejaVuSans-75"/>
      <use x="269.015625" xlink:href="#DejaVuSans-65"/>
      <use x="330.539062" xlink:href="#DejaVuSans-6e"/>
      <use x="393.917969" xlink:href="#DejaVuSans-63"/>
      <use x="448.898438" xlink:href="#DejaVuSans-69"/>
      <use x="476.681641" xlink:href="#DejaVuSans-61"/>
     </g>
    </g>
   </g>
   <g id="patch_103">
    <path d="M 57.6 307.584 
L 57.6 41.472 
" style="fill:none;stroke:#000000;stroke-linecap:square;stroke-linejoin:miter;stroke-width:0.8;"/>
   </g>
   <g id="patch_104">
    <path d="M 414.72 307.584 
L 414.72 41.472 
" style="fill:none;stroke:#000000;stroke-linecap:square;stroke-linejoin:miter;stroke-width:0.8;"/>
   </g>
   <g id="patch_105">
    <path d="M 57.6 307.584 
L 414.72 307.584 
" style="fill:none;stroke:#000000;stroke-linecap:square;stroke-linejoin:miter;stroke-width:0.8;"/>
   </g>
   <g id="patch_106">
    <path d="M 57.6 41.472 
L 414.72 41.472 
" style="fill:none;stroke:#000000;stroke-linecap:square;stroke-linejoin:miter;stroke-width:0.8;"/>
   </g>
   <g id="text_17">
    <!-- Lysholm Score -->
    <g transform="translate(192.992813 35.472)scale(0.12 -0.12)">
     <defs>
      <path d="M 628 4666 
L 1259 4666 
L 1259 531 
L 3531 531 
L 3531 0 
L 628 0 
L 628 4666 
z
" id="DejaVuSans-4c" transform="scale(0.015625)"/>
      <path d="M 2059 -325 
Q 1816 -950 1584 -1140 
Q 1353 -1331 966 -1331 
L 506 -1331 
L 506 -850 
L 844 -850 
Q 1081 -850 1212 -737 
Q 1344 -625 1503 -206 
L 1606 56 
L 191 3500 
L 800 3500 
L 1894 763 
L 2988 3500 
L 3597 3500 
L 2059 -325 
z
" id="DejaVuSans-79" transform="scale(0.015625)"/>
      <path d="M 2834 3397 
L 2834 2853 
Q 2591 2978 2328 3040 
Q 2066 3103 1784 3103 
Q 1356 3103 1142 2972 
Q 928 2841 928 2578 
Q 928 2378 1081 2264 
Q 1234 2150 1697 2047 
L 1894 2003 
Q 2506 1872 2764 1633 
Q 3022 1394 3022 966 
Q 3022 478 2636 193 
Q 2250 -91 1575 -91 
Q 1294 -91 989 -36 
Q 684 19 347 128 
L 347 722 
Q 666 556 975 473 
Q 1284 391 1588 391 
Q 1994 391 2212 530 
Q 2431 669 2431 922 
Q 2431 1156 2273 1281 
Q 2116 1406 1581 1522 
L 1381 1569 
Q 847 1681 609 1914 
Q 372 2147 372 2553 
Q 372 3047 722 3315 
Q 1072 3584 1716 3584 
Q 2034 3584 2315 3537 
Q 2597 3491 2834 3397 
z
" id="DejaVuSans-73" transform="scale(0.015625)"/>
      <path d="M 3513 2113 
L 3513 0 
L 2938 0 
L 2938 2094 
Q 2938 2591 2744 2837 
Q 2550 3084 2163 3084 
Q 1697 3084 1428 2787 
Q 1159 2491 1159 1978 
L 1159 0 
L 581 0 
L 581 4863 
L 1159 4863 
L 1159 2956 
Q 1366 3272 1645 3428 
Q 1925 3584 2291 3584 
Q 2894 3584 3203 3211 
Q 3513 2838 3513 2113 
z
" id="DejaVuSans-68" transform="scale(0.015625)"/>
      <path d="M 1959 3097 
Q 1497 3097 1228 2736 
Q 959 2375 959 1747 
Q 959 1119 1226 758 
Q 1494 397 1959 397 
Q 2419 397 2687 759 
Q 2956 1122 2956 1747 
Q 2956 2369 2687 2733 
Q 2419 3097 1959 3097 
z
M 1959 3584 
Q 2709 3584 3137 3096 
Q 3566 2609 3566 1747 
Q 3566 888 3137 398 
Q 2709 -91 1959 -91 
Q 1206 -91 779 398 
Q 353 888 353 1747 
Q 353 2609 779 3096 
Q 1206 3584 1959 3584 
z
" id="DejaVuSans-6f" transform="scale(0.015625)"/>
      <path d="M 603 4863 
L 1178 4863 
L 1178 0 
L 603 0 
L 603 4863 
z
" id="DejaVuSans-6c" transform="scale(0.015625)"/>
      <path d="M 3328 2828 
Q 3544 3216 3844 3400 
Q 4144 3584 4550 3584 
Q 5097 3584 5394 3201 
Q 5691 2819 5691 2113 
L 5691 0 
L 5113 0 
L 5113 2094 
Q 5113 2597 4934 2840 
Q 4756 3084 4391 3084 
Q 3944 3084 3684 2787 
Q 3425 2491 3425 1978 
L 3425 0 
L 2847 0 
L 2847 2094 
Q 2847 2600 2669 2842 
Q 2491 3084 2119 3084 
Q 1678 3084 1418 2786 
Q 1159 2488 1159 1978 
L 1159 0 
L 581 0 
L 581 3500 
L 1159 3500 
L 1159 2956 
Q 1356 3278 1631 3431 
Q 1906 3584 2284 3584 
Q 2666 3584 2933 3390 
Q 3200 3197 3328 2828 
z
" id="DejaVuSans-6d" transform="scale(0.015625)"/>
      <path id="DejaVuSans-20" transform="scale(0.015625)"/>
      <path d="M 3425 4513 
L 3425 3897 
Q 3066 4069 2747 4153 
Q 2428 4238 2131 4238 
Q 1616 4238 1336 4038 
Q 1056 3838 1056 3469 
Q 1056 3159 1242 3001 
Q 1428 2844 1947 2747 
L 2328 2669 
Q 3034 2534 3370 2195 
Q 3706 1856 3706 1288 
Q 3706 609 3251 259 
Q 2797 -91 1919 -91 
Q 1588 -91 1214 -16 
Q 841 59 441 206 
L 441 856 
Q 825 641 1194 531 
Q 1563 422 1919 422 
Q 2459 422 2753 634 
Q 3047 847 3047 1241 
Q 3047 1584 2836 1778 
Q 2625 1972 2144 2069 
L 1759 2144 
Q 1053 2284 737 2584 
Q 422 2884 422 3419 
Q 422 4038 858 4394 
Q 1294 4750 2059 4750 
Q 2388 4750 2728 4690 
Q 3069 4631 3425 4513 
z
" id="DejaVuSans-53" transform="scale(0.015625)"/>
     </defs>
     <use xlink:href="#DejaVuSans-4c"/>
     <use x="46.587891" xlink:href="#DejaVuSans-79"/>
     <use x="105.767578" xlink:href="#DejaVuSans-73"/>
     <use x="157.867188" xlink:href="#DejaVuSans-68"/>
     <use x="221.246094" xlink:href="#DejaVuSans-6f"/>
     <use x="282.427734" xlink:href="#DejaVuSans-6c"/>
     <use x="310.210938" xlink:href="#DejaVuSans-6d"/>
     <use x="407.623047" xlink:href="#DejaVuSans-20"/>
     <use x="439.410156" xlink:href="#DejaVuSans-53"/>
     <use x="502.886719" xlink:href="#DejaVuSans-63"/>
     <use x="557.867188" xlink:href="#DejaVuSans-6f"/>
     <use x="619.048828" xlink:href="#DejaVuSans-72"/>
     <use x="657.912109" xlink:href="#DejaVuSans-65"/>
    </g>
   </g>
  </g>
 </g>
 <defs>
  <clipPath id="peca006d378">
   <rect height="266.112" width="357.12" x="57.6" y="41.472"/>
  </clipPath>
 </defs>
</svg>
